<?xml version="1.0"?>
<svg width="640" height="480" xmlns="http://www.w3.org/2000/svg" xmlns:svg="http://www.w3.org/2000/svg">
 <!-- Created with SVG-edit - http://svg-edit.googlecode.com/ -->
 <g>
  <title>Layer 1</title>
  <line stroke="#000000" id="svg_1" y2="376" x2="132" y1="108" x1="232.000001" stroke-width="5" fill="none"/>
  <ellipse ry="34" rx="35" id="svg_2" cy="98" cx="238" stroke-linecap="null" stroke-linejoin="null" stroke-dasharray="null" stroke-width="5" stroke="#000000" fill="#ffff00"/>
  <ellipse stroke="#000000" ry="11" id="svg_3" cy="68" cx="210" stroke-linecap="null" stroke-linejoin="null" stroke-dasharray="null" stroke-width="5" fill="#ffff00"/>
  <path d="m228,131c0,1 0,1.800003 0,2.671997c0,0.870667 0,1.828003 0,2.559998c0,1.096008 0,1.968002 0,2.868011c0,0.899994 0,1.699997 0,2.599991c0,0.900009 0,1.800003 0,2.699997c0,0.900009 0,1.800003 0,2.700012c0,0.899994 0,1.699997 0,2.599991c0,0.900009 0,1.800003 0,2.699997c0,0.900009 0,1.801346 0,2.766678c0,0.833328 0,1.666656 0,2.528824c0,0.90451 0,1.804504 0,2.704498c0,0.900009 0,1.800003 0,2.700012c0,0.899994 0,1.699997 0,2.599991c0,0.900009 0,1.800003 0,2.699997c0,0.900009 0,1.800003 0,2.700012c0,0.899994 0,1.657166 0,2.552658c0,0.863342 0,1.826508 0,2.757996c0,0.910675 0,1.764008 0,2.70401c0,0.88533 0.124283,1.662766 0.574661,2.485336c0.427292,0.78038 0.425262,1.699997 0.425339,2.599991c0.000092,0.900009 0.220596,1.766693 0.574661,2.400009c0.481506,0.861267 0.424667,1.799988 0.425339,2.699997c0.000671,0.899994 0.124756,1.734299 0.704498,2.399994c0.553101,0.635117 1.145615,1.404297 1.295502,2.300003c0.140259,0.838181 0.766846,1.273788 1.221497,2.100174c0.393066,0.714447 0.991241,1.378281 1.37851,2.110489c0.413727,0.782227 0.763321,1.600143 1.199997,2.304001c0.544998,0.878433 1.065063,1.589966 1.30983,2.414001c0.315506,1.062241 0.599869,1.788376 0.762161,2.183334c0.339676,0.826691 0.682922,1.664978 1.327835,2.723328c0.36908,0.605698 0.964905,1.295975 1.778503,2.143173c0.480423,0.500259 0.8526,1.374115 1.305664,2.221497c0.348602,0.652008 0.757843,1.506165 1.216003,2.300003c0.406464,0.704269 0.853699,1.446121 1.5,2c0.611649,0.524185 1.440125,0.90332 1.916,1.698669c0.41394,0.691833 0.892807,1.467377 1.604828,1.780502c0.795547,0.349854 1.568634,0.521988 2.126511,1.073502c0.600281,0.593414 1.373322,0.936905 2.331161,0.947327c0.820114,0.008911 1.472992,0.331009 2.188171,0.833328c0.695435,0.488449 1.633316,0.166672 2.53334,0.166672c0.899994,0 1.738037,0.162781 2.352661,0.647339c0.649445,0.512009 1.647339,0.352661 2.547333,0.352661c0.899994,0 1.799988,0 2.699982,0c0.900024,0 1.800018,0 2.700012,0c0.799988,0 1.700012,0 2.600006,0c0.899994,0 1.810883,0.019852 2.721161,-0.000168c0.818085,-0.01799 1.52655,-0.535004 2.199677,-0.999832c0.705292,-0.48703 1.56662,-0.928421 2.043152,-1.600006c0.514893,-0.725647 1.210815,-1.336594 1.431519,-2.104492c0.247375,-0.860672 -0.083252,-1.76506 0.447144,-2.616837c0.342773,-0.550461 1.1922,-1.105026 1.485352,-2.042664c0.280121,-0.895996 -0.07782,-1.848587 0.072144,-2.73584c0.144012,-0.85202 0.970551,-1.256042 0.999847,-2.200165c0.027924,-0.899567 0.242126,-1.653763 0.647339,-2.399994c0.4133,-0.761124 0.21994,-1.71051 0.357147,-2.600006c0.143677,-0.931381 0.847351,-1.468613 0.991028,-2.399994c0.137207,-0.889496 0.004486,-1.800003 0.004486,-2.699997c0,-0.900009 0,-1.800003 0,-2.700012c0,-0.899994 0,-1.699997 0,-2.599991c0,-0.900009 0,-1.800003 0,-2.699997c0,-0.900009 0,-1.800003 0,-2.700012c0,-0.899994 0,-1.699997 0,-2.599991c0,-0.900009 0,-1.800003 0,-2.699997c0,-0.900009 0,-1.800003 0,-2.700012c0,-0.899994 0,-1.699997 0,-2.599991c0,-0.900009 0.142059,-1.813004 -0.010681,-2.699997c-0.143463,-0.833145 -0.904297,-1.587402 -0.987976,-2.400009c-0.092194,-0.895264 0.00061,-1.819611 -0.426666,-2.599991c-0.450378,-0.822571 -0.428162,-1.734055 -0.660004,-2.400009c-0.30835,-0.885666 -0.95636,-1.532181 -1.489349,-2.225327c-0.48703,-0.633377 -0.592499,-1.401733 -1.141327,-2.05867c-0.516907,-0.618713 -0.825806,-1.396301 -1.482666,-2.115997c-0.533478,-0.584518 -0.855713,-1.499039 -1.301331,-2.300003c-0.44455,-0.799057 -0.334473,-1.802811 -0.852661,-2.447327c-0.491547,-0.611374 -1.12674,-1.164551 -1.700012,-1.700012c-0.685211,-0.640015 -1.255341,-1.119644 -1.894653,-1.705322c-0.583252,-0.534332 -1.359833,-0.996796 -2.052673,-1.647339c-0.526337,-0.494202 -1.34433,-1.064194 -1.979156,-1.5c-0.810394,-0.55632 -1.141235,-1.3452 -1.684998,-2.042664c-0.579651,-0.7435 -1.093109,-1.209381 -1.569183,-1.689331c-0.951355,-0.959122 -1.503632,-1.475555 -2.250671,-1.969345c-0.680756,-0.449982 -1.561859,-1.07695 -1.974335,-1.79866c-0.45343,-0.793381 -0.582489,-1.702194 -1.041656,-2.5c-0.405609,-0.704742 -0.862122,-1.436432 -1.5,-2c-0.583496,-0.515518 -1.225616,-1.042831 -1.878662,-1.721329c-0.557739,-0.579468 -1.096008,-1.20401 -1.642166,-1.757843l-0.8685,-0.031494l-0.636002,-0.563995l-0.679169,-0.420837" id="svg_4" stroke-linecap="null" stroke-linejoin="null" stroke-dasharray="null" stroke-width="5" stroke="#000000" fill="#ff00ff"/>
  <path d="m252,129c1.699997,0.057159 2.550751,0.559128 3.056,0.886673c0.974518,0.63176 1.622833,0.933441 2.268005,1.287994c1.181274,0.649155 1.75296,1.146042 2.471985,1.538666c0.80069,0.437225 1.370667,1.119995 2.20401,1.286667c0.833344,0.166672 1.32605,0.863419 1.97467,1.425339c0.587921,0.509308 1.469879,0.479187 2.225342,0.858658c0.867188,0.435577 1.710968,0.351028 2.44281,0.773163c0.811127,0.46788 1.252594,1.003677 2.182526,1.368179c0.697632,0.273453 1.703522,0.4767 2.479156,0.931824c0.630646,0.370041 1.347412,0.952774 2.100006,1.342834c0.987488,0.511795 1.549988,0.847488 2.573975,1.178665c0.804474,0.260193 1.443146,0.824432 2.421509,1.085342c0.86615,0.230972 1.363403,0.493073 1.885345,1.234665c0.55011,0.781601 1.414673,0.854004 2.214661,1.301331c0.799988,0.447327 1.678314,0.823273 2.314331,1.204498c0.921814,0.552536 1.697388,0.768387 2.417664,1.095505c0.814392,0.369858 1.554352,0.937164 2.311157,1.300171c0.723145,0.346863 1.628815,0.643127 2.623505,1.066498c0.719025,0.30603 1.436096,0.650711 2.136017,0.972c0.641541,0.294479 1.949097,0.568497 2.697327,1.194656c0.639069,0.534821 1.07019,1.541092 1.799988,1.664001c0.887543,0.149475 1.819885,0.000259 2.600006,0.428009c0.822906,0.451218 1.558289,0.808609 2.300018,1.222c0.763672,0.425629 1.525269,0.842041 2.400146,1.231323c0.741486,0.329941 1.707581,0.592728 2.415833,0.837341c0.943756,0.325943 1.814331,0.190918 2.805511,0.505493c0.725067,0.230118 1.267792,0.604889 2.278503,1.074005c0.791077,0.367172 1.806915,0.57338 2.563995,0.729828c0.964844,0.199387 1.543762,0.593918 2.436005,1c0.822784,0.374466 1.557983,0.871689 2.399994,0.953842c0.974274,0.095062 1.752655,0.020828 2.652679,0.020828c0.863312,0 1.826477,0 2.747314,0c0.899994,0 1.8573,-0.163696 2.700012,0.221329c0.669312,0.305801 1.499939,0.773331 2.399994,0.778671c0.899963,0.005325 1.799988,0 2.700012,0c0.899994,0 1.799988,0 2.599976,0c0.900024,0 1.800018,0 2.700012,0c0.899994,0 1.799988,0 2.700012,0c0.899994,0 1.799988,0 2.599976,0c0.900024,0 1.800049,0.005325 2.700012,0c0.900055,-0.005341 1.715485,-0.267853 2.299988,-0.801331c0.719696,-0.656891 1.545959,-1.08136 2.174683,-1.624008c0.600189,-0.518005 1.349396,-0.90654 2.02533,-1.574661c0.585663,-0.578888 0.9758,-1.388351 1.5,-2c0.553894,-0.646301 1.333344,-1.166672 1.5,-2c0.166656,-0.833328 0.873749,-1.299805 1.166656,-2.166672c0.226532,-0.670395 0.739777,-1.655197 0.822662,-2.422668c0.097809,-0.905457 0.010681,-1.810654 0.010681,-2.710663c0,-0.899994 0,-1.800003 0,-2.699997c0,-0.800003 0,-1.699997 0,-2.600006c0,-0.899994 0,-1.799988 0,-2.699997c0,-0.899994 0,-1.800003 0,-2.699997c0,-0.757172 0,-1.652664 0,-2.516006c0,-0.963165 0.116516,-1.892151 -0.004486,-2.783997c-0.11142,-0.82135 -0.47757,-1.63707 -1.048187,-2.342834c-0.591095,-0.731079 -1.252869,-1.126846 -1.894653,-1.709831c-0.579315,-0.526237 -1.421112,-0.686241 -2.073517,-1.147331c-0.668854,-0.47271 -1.496521,-0.493698 -2.458313,-0.5c-0.910217,-0.005966 -1.394745,-0.725594 -2.1315,-0.989334c-0.837372,-0.299767 -1.836426,0.083336 -2.689331,-0.363335c-0.752228,-0.393951 -1.5,-0.64666 -2.400024,-0.647331c-0.899994,-0.000664 -1.799988,0 -2.699982,0c-0.899994,0 -1.8573,0.163689 -2.700012,-0.221336c-0.669312,-0.305801 -1.5383,-0.735847 -2.310669,-1.214661c-0.801636,-0.496956 -1.392761,-1.004654 -2.105316,-1.278671c-0.919006,-0.353401 -1.472076,-1.09964 -2.188507,-1.28083c-0.903076,-0.228386 -1.77951,-0.004501 -2.642822,-0.004501c-1.016693,0 -1.852692,0 -2.752686,0c-0.899994,0 -1.699982,0 -2.600006,0c-0.899994,0 -1.815704,0.157112 -2.699982,-0.010666c-0.945923,-0.179466 -1.587708,-0.896515 -2.308014,-0.978668c-1.049408,-0.11969 -1.979218,-0.009377 -2.651978,-0.046669c-0.674103,-0.037369 -1.874146,-0.229317 -2.782684,-0.538666c-0.841858,-0.286652 -1.656006,-0.42466 -2.557343,-0.425331c-0.899994,-0.000664 -1.851959,0.289101 -2.689331,-0.010666c-0.736755,-0.263741 -1.221252,-0.984001 -2.110657,-0.989334c-0.899963,-0.005394 -1.806519,0.106956 -2.700012,-0.001335c-0.919769,-0.111481 -1.566803,-0.844742 -2.399994,-0.987999c-0.928101,-0.159576 -1.942657,-0.010666 -2.650665,-0.010666c-0.743988,0 -1.778656,0 -2.749329,0c-0.799988,0 -1.700012,0 -2.600006,0c-0.899994,0 -1.799988,0 -2.699982,0c-0.900024,0 -1.800018,0 -2.700012,0c-0.799988,0 -1.700012,0 -2.635986,0c-0.848022,0 -1.711334,0 -2.728027,0c-0.835999,0 -1.735992,0 -2.635986,0c-0.799988,0 -1.700012,0 -2.600006,0c-0.899994,0 -1.810669,0 -2.721313,0c-0.853333,0 -1.793335,0 -2.67868,0c-0.757172,0 -1.652679,0 -2.515991,0l-0.963165,0l-0.920837,0" id="svg_5" stroke-linecap="null" stroke-linejoin="null" stroke-dasharray="null" stroke-width="5" stroke="#000000" fill="#ff00ff"/>
  <path d="m207,117c-1.699997,0 -2.605453,-0.082458 -3.541672,0.020836c-1.014877,0.111977 -1.714127,0.425247 -2.510162,0.626495c-1.020279,0.257942 -1.711639,0.333435 -2.546829,0.351334c-0.996613,0.021355 -1.916,0.001335 -2.880508,0.001335c-0.820831,0 -1.720825,0 -2.620834,0c-0.899994,0 -1.734436,-0.195946 -2.599991,0.057167c-0.87764,0.256645 -1.598648,0.914154 -2.5,0.942833c-0.899551,0.028625 -1.753784,0.242126 -2.5,0.647331c-0.761124,0.413292 -1.697952,0.35276 -2.300003,0.852669c-0.619736,0.514603 -1.310364,1.118027 -2.199997,1.414665c-0.857483,0.285919 -1.470276,0.632103 -2.157166,1.028168c-0.818527,0.47197 -1.734222,0.29084 -2.400009,0.761665c-0.717606,0.507469 -1.410934,0.878281 -2.485657,1.242836c-0.852402,0.289146 -1.359512,0.715126 -2.241165,1.251335c-0.667572,0.406006 -1.760574,0.511841 -2.432007,1.085327c-0.605759,0.517395 -1.211304,1.124878 -2.084,1.549332c-0.659668,0.320847 -1.514069,0.736374 -2.333328,1.166672c-0.656784,0.344955 -1.48378,0.577438 -2.5,1.166672c-0.497162,0.288269 -1.053818,0.914322 -2,1.5c-0.757462,0.468857 -1.237244,1.09697 -2.166672,1.333328c-0.823624,0.209442 -1.296204,0.780136 -1.947327,1.352661c-0.639206,0.562057 -1.061768,1.245956 -1.757172,1.700012c-0.757889,0.494858 -1.073944,1.404617 -1.731506,1.921997c-0.648163,0.509979 -1.288651,0.914322 -2.063995,1.504501c-0.734467,0.559067 -1.309723,1.047211 -1.785339,1.719498c-0.552017,0.780258 -1.269104,1.218948 -1.936157,1.679825c-0.729538,0.504044 -1.548416,0.477844 -2.000168,1.221512c-0.419083,0.689896 -1.304016,1.036758 -1.917007,1.5c-0.81691,0.61734 -1.532715,1.206482 -1.8405,1.920822c-0.387543,0.89946 0.083038,1.927979 -0.304825,2.679169c-0.339203,0.656952 -0.69696,1.500183 -0.716003,2.400009c-0.020416,0.964447 -0.780731,1.403564 -0.998672,2.201324c-0.241776,0.884995 -0.917587,1.352966 -1.001328,2.198669c-0.078827,0.796112 0,1.699997 0,2.600006c0,0.899994 -0.06694,1.743546 -0.574661,2.425323c-0.477219,0.640808 -0.425339,1.574677 -0.425339,2.47467c0,0.899994 0,1.800003 0,2.699997c0,0.900009 -0.02536,1.8004 0,2.600006c0.028595,0.901352 0.444199,1.5923 1.099838,2.300003c0.549957,0.593628 1.037399,1.341751 1.616165,1.983994c0.585373,0.649567 1.315887,1.042542 1.884003,1.526672c0.745346,0.635162 1.38739,1.304291 2.199997,1.388c0.895264,0.092209 1.819016,-0.163025 2.699997,0.022156c0.851639,0.179001 1.658005,0.87619 2.5,0.958344c0.974091,0.095047 1.695496,0.020828 2.671997,0.020828c0.870667,0 1.578674,0 2.559998,0c0.953674,0 1.868011,0 2.768005,0c0.800003,0 1.699997,0 2.600006,0c0.899994,0 1.799988,0 2.699997,0c0.899994,0 1.800003,0 2.699997,0c0.757172,0 1.825333,0 2.516006,0c1.004822,0 2.026657,0 2.734665,0c0.743988,0 1.778656,0 2.749329,0c0.757172,0 1.825333,0 2.516006,0c0.983994,0 1.967987,0 2.658661,0c1.068161,0 1.926605,0.047791 2.825333,0c0.803406,-0.042725 1.58197,-0.612976 2.399994,-0.97467c0.78447,-0.346848 1.634491,-0.767532 2.400009,-1.109329c0.74353,-0.331985 1.50386,-0.871521 2.521164,-0.916168c0.6577,-0.02887 1.429901,-0.437683 1.964172,-1.198502c0.419357,-0.597183 1.538971,-0.38652 2.357498,-0.85849c0.686905,-0.396072 1.3936,-0.774673 2.157166,-1.028168c0.772171,-0.256348 1.654007,-0.816132 2.185333,-1.350677c0.677917,-0.682037 1.222183,-1.130417 1.993164,-1.663834c0.739639,-0.511734 1.586533,-0.86731 2.354828,-1.23349c0.691818,-0.329727 1.474762,-0.751663 2.166672,-1.5c0.596649,-0.645309 1.193832,-1.157379 1.983994,-1.736008c0.553177,-0.40509 1.399643,-1.218994 1.869339,-1.794662c0.637527,-0.781372 0.961548,-1.661606 1.507996,-2.035995c0.942322,-0.645615 1.688507,-1.04808 2.054672,-1.800003c0.416275,-0.854828 0.747238,-1.459412 1.405334,-2.342667c0.340012,-0.456329 0.832535,-1.221954 1.511993,-2.124008c0.515167,-0.683945 1.02269,-1.182388 1.556,-2.158661c0.366013,-0.670013 0.510315,-1.572144 0.832169,-2.496002c0.244019,-0.700455 0.849762,-1.46373 1.342499,-2.268005c0.472244,-0.770813 0.357224,-1.765457 0.861343,-2.38533c0.500214,-0.615067 1.117844,-1.228638 1.453156,-2.125336c0.318085,-0.850632 0.567657,-1.447556 1.036179,-2.185333c0.439117,-0.691467 0.085327,-1.714661 0.085327,-2.514664c0,-0.899994 0,-1.800003 0,-2.699997c0,-0.921326 0,-1.833328 0,-2.750671c0,-0.743988 -0.001328,-1.778656 -0.085327,-2.546661l-0.489334,-0.802673l-0.389343,-0.799988l-0.035995,-0.900009" id="svg_6" stroke-linecap="null" stroke-linejoin="null" stroke-dasharray="null" stroke-width="5" stroke="#000000" fill="#ff00ff"/>
  <path d="m200,92c-0.166672,-1 -0.794388,-1.49131 -1.479172,-2c-0.694244,-0.515717 -1.304947,-0.993553 -2.173492,-1.35717c-0.716415,-0.299927 -1.383728,-0.966286 -2.145996,-1.357498c-0.83992,-0.431068 -1.801361,-0.279999 -2.70134,-0.285332c-0.90004,-0.005333 -1.611801,-0.442337 -2.5,-0.833336c-0.657639,-0.289497 -1.587982,-0.267174 -2.109833,-0.871162c-0.563126,-0.651772 -1.212631,-0.94693 -2.390167,-1.462166c-0.747772,-0.327187 -1.57605,-0.658569 -2,-0.833336c-0.842072,-0.347137 -2.0009,-0.831268 -2.651993,-1.117332c-0.911789,-0.400612 -1.574066,-0.700958 -2.848007,-1.216003c-0.526428,-0.21283 -1.102707,-0.434555 -1.711502,-0.671997c-1.267761,-0.494446 -1.901291,-0.74202 -2.515335,-0.989334c-0.584595,-0.235451 -2.047836,-0.816917 -2.931824,-1.333336c-0.740189,-0.432411 -1.471359,-1.017075 -2.188675,-1.314827c-0.872253,-0.362068 -1.861267,-0.233162 -2.752502,-0.357338c-0.80188,-0.111725 -1.261093,-0.956696 -2.221497,-1c-0.678284,-0.030586 -1.626556,-0.277519 -2.374161,-0.647163c-0.797394,-0.394264 -1.788498,-0.352669 -2.479172,-0.352669c-1.068161,0 -1.925339,0 -2.825333,0c-0.88533,0 -1.661667,0 -2.46167,0c-1.220993,0 -2.017502,0 -2.768997,0c-0.964005,0 -1.737473,0.013138 -2.792664,-0.004501c-0.56015,-0.009361 -1.552643,-0.059799 -2.719162,-0.216835c-0.860565,-0.115852 -1.297394,-0.20459 -2.170837,-0.353333c-0.833252,-0.141899 -2.232208,-0.355293 -2.800003,-0.389328c-1.052017,-0.063057 -1.929169,-0.036003 -2.926666,-0.036003c-0.67334,0 -1.860001,0 -2.652008,0c-0.90799,0 -1.807999,0 -2.707993,0c-0.757172,0 -1.661667,0 -2.46167,0c-0.959496,0 -1.752998,0 -2.528496,0c-1.195503,0 -2.110001,0 -2.895164,0c-0.950668,0 -1.716003,0 -2.71917,0c-0.852669,0 -1.816666,0 -2.610168,0c-0.775497,0 -1.814667,0 -2.785332,0c-0.800003,0 -1.76194,-0.036179 -2.5,0.520836c-0.665634,0.50235 -1.199997,1.179161 -1.900002,1.879166c-0.599998,0.599998 -1.338882,1.134361 -1.563995,2c-0.225616,0.867561 -0.721092,1.53241 -0.978836,2.30983c-0.254723,0.768303 -0.026573,1.791924 -0.409836,2.594666c-0.425293,0.890785 -0.629326,1.520355 -0.647331,2.528839c-0.015388,0.86203 0,1.766663 0,2.666664c0,0.910667 0,1.821335 0,2.5c0,1.11467 0,2 0,2.800003c0,0.899994 0,1.799995 0,2.699997c0,0.900002 -0.13166,1.85006 0.221336,2.599998c0.365044,0.775528 0.788101,1.596634 1.221497,2.442665c0.374969,0.731987 0.719185,1.223595 1.390503,2.124001c0.502861,0.674461 0.997238,1.573219 1.335999,2.218666c0.436188,0.83107 1.002029,1.303368 1.809334,2.09317c0.635857,0.622078 1.346893,1.11499 2.042168,1.542336c0.583961,0.358925 1.369926,0.983482 2.0625,1.5c0.5345,0.398621 1.575645,0.996399 2.451332,1.376495c0.467575,0.202957 1.441345,0.570335 2.397499,0.888336c0.445076,0.148026 1.849838,0.532959 2.546997,0.714333c1.193665,0.310547 1.857483,0.566238 2.622169,0.85067c0.798019,0.296829 1.548264,0.626991 2.513,0.906334c0.833435,0.241325 1.928329,0.242996 2.636337,0.242996c0.743988,0 1.831146,-0.188988 2.749329,0.166664c0.704605,0.272926 1.482773,0.786293 2.404495,0.828835c0.993118,0.045837 1.759506,0.004501 2.710175,0.004501c0.88533,0 1.568832,0.462189 2.328323,0.878502c0.689407,0.377899 1.757004,0.121498 2.557007,0.121498c1,0 1.789337,0 2.514664,0c1.074677,0 1.985336,0 2.88533,0c0.900009,0 1.800003,0 2.700012,0c0.899994,0 1.699997,0 2.599991,0c0.900009,0 1.800003,0 2.604507,0c1.01683,0 1.695496,0 2.673996,0c1.0215,0 1.779739,0.039536 2.674164,-0.004501c0.866074,-0.042641 1.669571,-0.544807 2.514008,-0.828835c0.801849,-0.269707 1.811996,-0.166664 2.585999,-0.166664c0.899994,0 1.763336,0 2.726501,0c0.920822,0 1.820831,0 2.720825,0c0.900009,0 1.8004,0.025368 2.600006,0c0.901352,-0.028595 1.62236,-0.686188 2.5,-0.942833c0.865555,-0.253113 1.800003,-0.057167 2.699997,-0.057167c0.800003,0 1.699997,0 2.600006,0c0.899994,0 1.808151,0.116493 2.699997,-0.004501c0.82135,-0.111427 1.466858,-0.841354 2.300003,-0.984833c0.886993,-0.152756 1.842392,0.257164 2.695496,-0.015167c0.820511,-0.261925 1.315125,-0.990166 2.204498,-0.995499c0.899979,-0.005394 1.800003,0 2.699997,0c0.900009,0 1.800003,0 2.600006,0l0.899994,0l0.900009,0" id="svg_7" stroke-linecap="null" stroke-linejoin="null" stroke-dasharray="null" stroke-width="5" stroke="#000000" fill="#ff00ff"/>
  <path d="m202,84c-1.652664,-2.595497 -2.171982,-3.166656 -2.833328,-3.833336c-0.56041,-0.564926 -1.22261,-1.22007 -1.930511,-1.930664c-0.590714,-0.592957 -1.218124,-1.23336 -1.524155,-1.559998c-0.580002,-0.619049 -1.338318,-1.637459 -1.792007,-2.472c-0.391541,-0.720215 -0.885529,-1.601326 -1.419998,-2.204002c-0.516602,-0.582527 -1.188705,-1.098679 -1.584,-1.801331c-0.459595,-0.81694 -0.836243,-1.639519 -1.436829,-2.219505c-0.627365,-0.605858 -1.149963,-1.30455 -1.774673,-1.869331c-0.640198,-0.578773 -0.547684,-1.525246 -1.147339,-2.209999c-0.470963,-0.5378 -1.443497,-1.027699 -1.921158,-1.735832c-0.492188,-0.729668 -0.80983,-1.576923 -1.236008,-2.328003c-0.472061,-0.831951 -0.965363,-1.396061 -1.455994,-1.975998c-0.712189,-0.841816 -1.302155,-1.570549 -1.619995,-1.961334c-0.648315,-0.797089 -1.268723,-1.565388 -1.824005,-2.231998c-0.624817,-0.75008 -1.226288,-1.442299 -1.600006,-2.209335c-0.336792,-0.691254 -0.642151,-1.721073 -1.101334,-2.489334c-0.387909,-0.649006 -1.126022,-1.506901 -1.634659,-2.239998c-0.379044,-0.546318 -0.767929,-1.128944 -1.363663,-2.027668c-0.581543,-0.877323 -0.997757,-1.391777 -1.46701,-2.367001c-0.369034,-0.766945 -0.799271,-1.56942 -1.21199,-2.433331c-0.407333,-0.852657 -0.774963,-1.460415 -1.41684,-2.200001c-0.578613,-0.666687 -0.722504,-1.469536 -1.057159,-2.352669c-0.26738,-0.70562 -0.512451,-1.760494 -0.931335,-2.547333c-0.347443,-0.652622 -0.530029,-1.526863 -0.751999,-2.4c-0.219208,-0.862284 -0.763992,-1.64609 -1.130676,-2.4c-0.371399,-0.763613 -0.822906,-1.499819 -0.833328,-2.4c-0.010406,-0.899939 0.096375,-1.823263 -0.166672,-2.766666c-0.190063,-0.681637 -0.739761,-1.655205 -0.822662,-2.422667c-0.097809,-0.905462 0.084793,-1.855206 -0.294662,-2.610668c-0.435577,-0.867199 -0.715332,-1.599998 -0.716003,-2.499999c-0.000656,-0.900001 0,-1.710667 0,-2.621333c0,-0.853333 0,-1.793334 0,-2.778667c0,-0.9 0,-1.7 0,-2.599999c0,-0.9 -0.002258,-1.800003 0,-2.7c0.002258,-0.895509 0.408554,-1.593632 1,-2.1c0.594437,-0.508933 1.438065,-0.662789 2.052673,-1.147333c0.649445,-0.512002 1.434967,-0.635789 2.113998,-1.186c3.153351,-2.555112 4.485931,-1.96684 5.333328,-2.145834c0.880798,-0.186049 1.800003,-0.020833 2.699997,-0.020833c0.900009,0 1.800003,0 2.600006,0c0.899994,0 1.835999,0 2.68399,0c0.863342,0 1.763336,0 2.682678,0c0.854156,0 1.833328,0 2.622665,0c1.043991,0 1.871994,0 2.753494,0c0.718506,0 1.509064,-0.01094 2.536163,0.000167c0.962845,0.010412 1.777878,0.069618 2.784836,0.221167c0.791611,0.119138 1.61496,0.280803 2.421005,0.426c1.047989,0.188779 1.985504,0.193746 2.815002,0.352833c0.849075,0.162841 1.024887,1.208116 1.701492,1.7145c1.583069,1.184784 2.082535,1.726665 2.482666,2.485333c0.452713,0.858377 0.825272,1.469238 1.517334,1.884c0.794998,0.476458 1.082535,1.357331 1.482666,2.116c0.452713,0.858377 0.821259,1.5878 1.216003,2.3c0.490875,0.885631 0.5,1.8 0.5,2.7c0,0.900001 -0.146042,1.827708 0.057159,2.5c0.264557,0.875282 0.914169,1.598641 0.942841,2.500001c0.028625,0.899544 0.242142,1.753775 0.647339,2.5c0.413284,0.76112 0.352661,1.699999 0.352661,2.599998c0,0.900002 0,1.800001 0,2.700001c0,0.799999 0,1.700001 0,2.6c0,0.9 0,1.799999 0,2.699999c0,0.900002 -0.244247,1.932156 0.283997,2.616001c0.484711,0.627499 0.716003,1.284 0.716003,2.183998c0,0.900002 0,1.700001 0,2.657169c0,0.8955 0,1.758831 0,2.6175c0,0.946667 0,1.799999 0,2.739998c0,0.885334 -0.195953,1.719769 0.057159,2.585335c0.256638,0.877632 0.914169,1.59864 0.942841,2.5c0.028625,0.899712 0.06134,1.694359 0.425339,2.625332c0.272858,0.697891 0.56424,1.65366 0.574661,2.574669c0.010178,0.89994 -0.124008,1.808609 0.000168,2.699833c0.111725,0.80188 0.971237,1.255878 0.999832,2.100166c0.030472,0.899483 0,1.799999 0,2.599998c0,0.900002 0,1.799999 0,2.700001c0,0.900002 0,1.800003 0,2.699997c0,0.900002 0,1.800003 0,2.600006l0,0.899994" id="svg_8" stroke-linecap="null" stroke-linejoin="null" stroke-dasharray="null" stroke-width="5" stroke="#000000" fill="#ff00ff"/>
  <path d="m221,62c-0.035995,-2.625332 -0.314453,-3.473858 -0.574661,-4.210667c-0.344788,-0.976322 -0.403748,-1.620861 -0.420837,-2.360832c-0.029846,-1.2925 -0.002579,-2.095646 -0.02533,-2.970169c-0.011826,-0.45443 -0.030289,-1.380856 -0.2005,-2.737c-0.109406,-0.8717 -0.28093,-1.720943 -0.353333,-2.146667c-0.145905,-0.857903 -0.315292,-2.195446 -0.368179,-3.131832c-0.027023,-0.478539 -0.050507,-1.453468 -0.055832,-2.444168c-0.005371,-0.99865 -0.000168,-1.998688 -0.005829,-2.498665c-0.011337,-1.000069 -0.044128,-2.000553 -0.080826,-2.5c-0.110382,-1.502102 -0.194763,-2.000561 -0.340012,-3c-0.072708,-0.500286 -0.246964,-1.497116 -0.40799,-3c-0.053467,-0.499014 -0.113678,-1.49534 -0.130676,-1.989334c-0.033539,-0.974419 -0.035324,-1.925333 -0.035995,-3.288832c-0.000214,-0.433834 0,-1.264502 0,-2.403002c0,-0.985498 0,-1.817999 0,-2.605499c0,-1.213333 0,-1.964001 0,-2.778666c0,-0.822668 -0.027618,-1.597683 0.001328,-2.794667c0.017746,-0.733938 0.304443,-1.615233 0.573334,-2.314667c0.405945,-1.055967 0.715042,-1.88223 1.072678,-2.525333c0.474426,-0.853114 0.770386,-1.717724 1.352661,-2.3c0.582275,-0.582281 1.410263,-1.074449 2.02533,-1.574667c0.619873,-0.504118 1.653244,-0.082274 2.453842,-0.446167c0.773224,-0.351455 1.348236,-0.567968 2.163666,-1.036334c0.811981,-0.46639 1.357559,-0.917464 2.157166,-0.942833c0.901352,-0.028598 1.62236,-0.686189 2.5,-0.942833c0.865555,-0.253113 1.800003,-0.057167 2.699997,-0.057167c0.800003,0 1.636002,0 2.652664,0c0.694672,0 1.747543,0.252732 2.642838,-0.0045c0.767914,-0.220634 1.225143,-0.985083 2.104492,-0.9955c0.899948,-0.010661 1.800003,0 2.700012,0c0.899994,0 1.699997,0 2.599991,0c0.900009,0 1.800003,0 2.699997,0c0.900009,0 1.800003,0 2.700012,0c0.899994,0 1.699997,0 2.599991,0c0.900009,0 1.738052,0.162789 2.352676,0.647333c0.649445,0.512002 1.744232,-0.010486 2.511322,0.388667c0.759399,0.395144 1.24881,1.135036 1.436005,1.964c0.199585,0.883864 0.81427,1.331091 1.221344,2.1c0.401031,0.75753 0.765991,1.600078 0.778656,2.5c0.012665,0.900152 0.497711,1.620002 0.833344,2.4c0.306061,0.71128 0.096527,1.666552 0.251984,2.601334c0.134796,0.810577 0.501862,1.55842 0.862,2.6415c0.283936,0.853933 0.862518,1.411259 1.041992,2.357166c0.167786,0.884289 0.010681,1.799999 0.010681,2.699999c0,0.900002 -0.047791,1.801271 0,2.700001c0.042725,0.803402 0.686188,1.422365 0.942841,2.299999c0.253113,0.865564 0.057159,1.800167 0.057159,2.585335c0,0.939999 -0.008636,1.94805 0,2.703999c0.010437,0.910847 0.543213,1.61396 0.87851,2.510666c0.318085,0.850639 0.12149,1.700001 0.12149,2.600002c0,0.899998 0,1.799999 0,2.700001c0,0.899998 0,1.799999 0,2.699997c0,0.900002 0,1.700001 0,2.600002c0,0.899998 0,1.799999 0,2.700001c0,0.899998 0,1.799999 0,2.699997c0,0.900002 0,1.700001 0,2.600002c0,0.899998 0,1.799999 0,2.700001c0,0.899998 0,1.799999 0,2.699997c0,0.900002 -0.124298,1.677429 -0.574677,2.5c-0.427277,0.780388 -0.340546,1.75972 -0.850647,2.374668c-0.497101,0.59927 -1.365448,1.026218 -1.573334,1.826664c-0.212036,0.816452 -0.834686,1.365334 -1.001343,2.198669l0,0.800003" id="svg_9" stroke-linecap="null" stroke-linejoin="null" stroke-dasharray="null" stroke-width="5" stroke="#000000" fill="#ff00ff"/>
  <path d="m267,75c0,-2.589333 -0.00354,-3.46537 0.085327,-4.311996c0.117401,-1.118301 0.195099,-1.594048 0.350677,-2.650673c0.082245,-0.558556 0.260101,-1.680069 0.365326,-2.218666c0.276642,-1.415817 0.476349,-2.145405 0.798676,-3.001331c0.374329,-0.994045 0.707001,-1.761662 0.87915,-2.296501c0.3797,-1.179588 0.425629,-1.879734 0.742188,-2.842167c0.229218,-0.696915 0.365387,-1.820881 0.945313,-2.511997c0.52124,-0.62117 0.771698,-1.337166 0.854187,-2.166668c0.08371,-0.841843 0.514435,-1.506104 1.300323,-2.321335c0.489563,-0.507832 1.074432,-0.963818 1.573486,-1.9305c0.352203,-0.682251 0.665955,-1.525078 1.147003,-2.289833c0.359863,-0.572102 1.159607,-1.757221 1.553833,-2.353832c0.385071,-0.582745 0.932007,-1.41153 1.382996,-2.182999c0.396912,-0.67897 0.806183,-1.527359 1.221527,-2.318836c0.387054,-0.737595 1.188324,-1.333805 1.998657,-1.887997c0.602325,-0.411938 0.850311,-1.363155 1.562988,-1.824501c0.718689,-0.465229 1.410522,-1.078033 2.071686,-1.723499c0.664185,-0.648392 1.329193,-1.173534 1.992004,-1.566669c0.686462,-0.407154 1.53009,-1.009123 2.274658,-1.699831c0.593262,-0.550356 1.463562,-0.87038 2.233337,-1.233501c0.694672,-0.327694 1.377472,-0.891207 2.333313,-1.333332c0.765747,-0.354198 1.777802,-0.238056 2.536011,-0.618668c0.662689,-0.33267 1.565338,-0.914667 2.297333,-1.214666c0.731995,-0.299999 1.642761,-0.866304 2.297333,-1.214666c0.830566,-0.442019 1.751099,-0.718746 2.463989,-1.146667c0.528229,-0.317074 1.569702,-0.975998 2.277008,-1.3815c0.797455,-0.457188 1.503632,-1.069914 2.260345,-1.471832c0.748108,-0.397358 1.722168,-0.259546 2.505829,-0.638c0.888855,-0.429264 1.695343,-0.636915 2.673981,-0.647333c0.71698,-0.007631 1.621552,0.005333 2.521515,0c0.900055,-0.005333 1.756592,-0.443869 2.385345,-0.716c0.892181,-0.386147 1.950562,-0.240997 2.656311,-0.304834c0.965424,-0.087328 1.816223,-0.332335 2.458344,-0.479166c0.947815,-0.21674 1.952484,-0.383593 2.800842,-0.552666c0.975281,-0.194363 1.692596,-0.471016 2.431152,-0.663334c1.087463,-0.283163 1.968018,-0.284 2.868011,-0.284c0.899994,0 1.677429,-0.124289 2.5,-0.574667c0.780396,-0.427276 1.699982,-0.425333 2.600006,-0.425333c0.899994,0 1.799988,0 2.599976,0c0.900024,0 1.648346,-0.242038 2.284027,-0.716c0.768829,-0.57324 1.715973,-0.284 2.615997,-0.284c0.820831,0 1.798035,0.107625 2.647308,-0.057167c0.925751,-0.179628 1.640076,-0.8578 2.452667,-0.9415c0.895294,-0.092217 1.800018,-0.001333 2.700012,-0.001333c0.899994,0 1.799988,-0.000084 2.700012,0c0.899994,0.000084 1.56604,0.148589 2.435974,0.574667c0.820526,0.40187 1.711334,0.422459 2.606842,0.425333c0.955841,0.003068 1.507965,0.44746 2.193176,0.974667c0.653656,0.502941 1.456696,0.747208 2.043152,1.525333c0.561218,0.744654 0.520844,1.833334 0.520844,2.505333c0,0.743999 0,1.851667 0,2.685667c0,0.909 0,1.809 0,2.709c0,0.9 0,1.800001 0,2.700167c0,0.785168 0,1.735834 0,2.501167c0,0.994167 0,1.741501 0,2.762665c0,0.936001 0,1.836002 0,2.736c0,0.900002 0.393005,1.830383 -0.085327,2.61467c-0.490173,0.80373 -1.144958,1.245647 -1.562012,1.985332c-0.420044,0.74501 -0.80188,1.538784 -1.436676,2.015999c-0.766541,0.576263 -1.839569,0.219784 -2.395142,0.804832c-0.688538,0.725086 -0.933258,1.580299 -1.582184,2.053833c-0.722504,0.527225 -1.514526,0.398243 -2.459503,0.967003c-0.878265,0.528603 -1.247162,0.942333 -1.979156,1.458332c-0.731995,0.515999 -1.468292,1.201172 -2.19101,1.638332c-0.817078,0.494228 -1.414124,1.039154 -2.110321,1.445667c-0.826172,0.482395 -1.313843,1.234123 -1.998657,1.630669c-0.878448,0.508671 -1.872864,0.60479 -2.547333,0.98983c-0.794861,0.45377 -1.406464,1.051533 -2.136688,1.779503c-0.516785,0.515198 -0.961975,1.110531 -1.763336,1.754333c-0.853668,0.685844 -1.597076,0.688271 -2.353973,0.845665c-1.00943,0.209908 -1.766144,0.584042 -2.514679,1.116001c-0.659882,0.468941 -1.536407,1.118782 -2.130676,1.399998c-0.906769,0.429096 -1.694641,0.716618 -2.492004,0.964001c-1.109741,0.344299 -1.895538,0.403183 -2.749329,0.722668c-0.817047,0.305737 -1.282623,0.602787 -2.478668,1.195999c-0.672577,0.333572 -1.337494,0.676735 -1.97998,0.947998c-1.179779,0.498108 -1.914154,0.603386 -2.817352,0.790672c-0.91507,0.189743 -1.55481,0.378212 -2.735992,0.612c-0.7995,0.158241 -1.814606,0.405945 -2.520844,0.666664c-0.970337,0.358223 -1.768311,0.468285 -2.493835,0.498665c-1.038422,0.04348 -1.53598,0.708992 -2.338654,0.916c-0.88092,0.227188 -1.813385,0.075027 -2.725342,0.085335c-0.921509,0.010422 -1.663055,0.488602 -2.587982,0.833336c-0.650818,0.242569 -1.528351,0.212967 -2.518677,0.451996c-0.843842,0.203674 -1.419189,0.419075 -2.614838,0.814667c-0.60437,0.199959 -1.53418,0.505478 -2.18515,0.700005c-1.033112,0.308708 -1.762268,0.486435 -2.817352,0.799995c-0.645172,0.191742 -1.609009,0.673637 -2.498169,1.042831c-0.718842,0.298485 -1.698975,0.345634 -2.431152,0.355835c-1.095917,0.015266 -1.991272,-0.095032 -2.934662,0.167999c-0.681671,0.190056 -1.655212,0.739769 -2.422668,0.82267c-0.905457,0.097809 -1.84549,-0.232208 -2.706177,0.015167c-0.767883,0.220703 -1.225159,0.985077 -2.104492,0.995499c-0.899933,0.010666 -1.800018,0 -2.700348,0c-0.870331,0 -1.670898,-0.05069 -2.648987,0.036003c-0.922974,0.081802 -1.689789,0.57003 -2.571991,0.842667c-0.658691,0.203568 -1.657166,0.342667 -2.374176,0.768661l-0.90451,0.342003" id="svg_10" stroke-linecap="null" stroke-linejoin="null" stroke-dasharray="null" stroke-width="5" stroke="#000000" fill="#ff00ff"/>
  <path d="m271,87c1.084015,-1.714668 1.837952,-2.072212 2.768005,-2.568001c0.493591,-0.263123 1.181976,-0.823631 2.262665,-1.262665c0.694611,-0.282188 1.644257,-0.485184 2.31665,-0.873833c0.934357,-0.540062 1.510864,-1.138084 2.305359,-1.591003c0.674713,-0.384628 1.616272,-0.575623 2.513977,-0.871162c0.860077,-0.28315 1.645172,-0.86377 2.3125,-1.3125c0.698517,-0.469704 1.326202,-0.999199 1.963684,-1.620667c0.627014,-0.611244 1.700073,-0.499649 2.435822,-1.121506c0.615265,-0.520042 1.289337,-0.941902 1.946686,-1.203995c1.010101,-0.402748 1.78302,-0.563515 2.574646,-1c0.822845,-0.45369 1.769836,-0.733391 2.425354,-1c0.694092,-0.282303 1.600433,-0.728828 2.227325,-1.222c0.649963,-0.51133 1.655823,-0.254013 2.46817,-0.373505c0.987854,-0.145302 1.642059,-0.588081 2.593811,-0.895164c0.875702,-0.282547 1.563293,-0.787933 2.406189,-1.084c0.783569,-0.27523 1.625763,-0.663048 2.457642,-0.878502c0.80246,-0.207832 1.721527,-0.121498 2.657501,-0.121498c0.861359,0 1.572357,0 2.28302,0c1.580994,0 2.273651,0 3.042328,0c0.830658,0 1.70932,0 2.622009,0c0.932648,0 1.871338,0 2.802002,0c1.781311,0 2.606476,0 3.38266,0c0.728149,0 1.409332,0 2.044495,0c0.590179,0 1.136322,0 2.520844,0c0.723999,0 1.787994,0 2.646332,0c0.861664,0 1.416321,0 2.669647,0c0.538666,0 1.727997,0 2.350677,0c0.622681,0 1.812012,0 2.833344,0c1.084503,0 1.835999,0 2.833313,0c0.669342,0 1.434662,0 2.232025,0c1.434662,0 2.17276,-0.014511 3.101318,0c0.666901,0.010422 1.483215,0.079803 2.870667,0.221497c0.601563,0.06144 1.250916,0.133667 1.932007,0.2145c0.697571,0.082787 2.07724,0.260483 2.725342,0.365334c1.141022,0.184586 2.000641,0.36924 2.826141,0.677834c0.980133,0.366394 1.820465,0.515503 2.763184,0.520836c0.85199,0.004822 1.652832,-0.019272 2.403503,0.020836c0.797943,0.042633 2.04126,0.326271 2.776489,0.625832c0.561981,0.228966 1.56665,0.674301 2.356171,1.005997c0.825806,0.346947 1.647003,0.662201 2.67984,1.180672c0.768402,0.385719 1.346619,0.810333 2.333313,1.166664c0.655853,0.236847 1.428619,0.383011 2.196014,0.599998c1.3125,0.371117 1.854187,0.759415 2.572174,1.157166c0.863739,0.478493 1.837616,0.729721 2.390991,0.8955c0.586578,0.175728 1.807922,0.520477 2.410004,0.694672c0.577911,0.167198 2.07132,0.520279 2.91217,1.027328c0.70224,0.42347 1.19986,1.254204 1.494812,1.972672c0.406158,0.989319 0.625031,1.868156 1.158508,2.452667c0.65686,0.719704 1.155945,1.396965 1.198669,2.299995c0.042511,0.898994 0,1.700005 0,2.599998c0,0.900002 0,1.800003 0,2.700005c0,0.900002 0.149811,1.812576 -0.000153,2.699829c-0.144012,0.852036 -0.856018,1.299751 -1.283844,2.100166c-0.457489,0.855865 -0.814453,1.487885 -1.517334,1.884003c-0.81662,0.460205 -1.649109,0.783226 -2.399994,1.201332c-0.748596,0.416832 -1.427551,1.062538 -2.145996,1.357498c-0.989349,0.406181 -1.791046,0.743248 -2.452667,1.073174c-0.843384,0.420563 -1.819611,0.282059 -2.600006,0.709328c-0.822571,0.450378 -1.834229,0.327744 -2.515991,0.858665c-0.626587,0.487946 -0.985626,1.350319 -1.625671,1.716003c-0.854584,0.488243 -1.627625,0.589798 -2.574341,0.917336c-0.763855,0.264275 -1.519836,0.808594 -2.058655,1.231995c-0.912842,0.717316 -1.603394,0.968643 -2.425354,1.425339c-0.78183,0.434402 -1.782379,0.718826 -2.233337,1.425331c-0.424896,0.665672 -1.226532,0.871735 -2.145325,1.221336c-0.688721,0.262062 -1.519684,0.623451 -2.368652,0.831329c-0.917328,0.224609 -1.682953,0.699158 -2.452667,1.031334c-0.780762,0.336945 -1.739899,0.822121 -2.450684,0.879997c-0.742188,0.060432 -1.778656,0.036003 -2.749329,0.036003c-0.757172,0 -1.65274,-0.009338 -2.515991,0c-0.963348,0.010422 -1.720398,0.503304 -2.650665,0.833336c-0.797302,0.282867 -1.666687,0.166664 -2.528839,0.166664c-0.940491,0 -1.791168,0 -2.551178,0c-1.1745,0 -1.967987,0 -2.7435,0c-1.044495,0 -1.732483,0 -2.676483,0c-1.044006,0 -1.833344,0 -2.622681,0c-1.044006,0 -1.966675,0 -2.810669,0c-0.899994,0 -1.699982,0 -2.600006,0c-0.971985,0 -1.842834,0 -2.56131,0c-0.790497,0 -2.055481,-0.036011 -2.717834,0.020836c-1.027435,0.088181 -1.794708,0.446579 -2.535522,0.695168c-0.947784,0.318047 -1.885315,0.283997 -2.785309,0.283997c-0.900024,0 -1.800018,0 -2.700012,0c-0.799988,0 -1.700012,0 -2.600006,0c-0.899994,0 -1.834808,-0.242874 -2.695496,0.004501c-0.767883,0.220703 -1.225159,0.985077 -2.104492,0.995499c-0.904449,0.010719 -1.921326,0 -2.600006,0c-0.978485,0 -1.798676,0 -2.700012,0c-0.899994,0 -1.862488,0 -2.799988,0c-0.862488,0 -1.520844,0 -2.199158,0c-1.25769,0 -2.018188,0 -3.134186,0c-0.755981,0 -1.666656,0 -2.577332,0c-0.910645,0 -1.777374,0.156761 -2.702667,-0.001335c-0.84256,-0.143959 -1.550018,-0.856026 -2.297333,-0.945999c-0.88504,-0.10656 -1.987213,-0.124123 -2.547668,-0.573502c-0.712677,-0.571419 -1.241852,-1.11866 -2.241333,-1.357834c-0.747223,-0.17881 -1.611572,-0.607811 -2.46698,-1.12133c-0.691376,-0.415054 -1.365234,-0.467766 -2.282684,-0.800003c-1.008026,-0.365028 -1.618652,-0.799995 -2.350647,-1.495499l-0.700012,-0.537834l-0.799988,-0.250664" id="svg_11" stroke-linecap="null" stroke-linejoin="null" stroke-dasharray="null" stroke-width="5" stroke="#000000" fill="#ff00ff"/>
 </g>
</svg>